<svg width="178" height="38" viewBox="0 0 178 38" fill="none" xmlns="http://www.w3.org/2000/svg">
<circle cx="19" cy="19" r="18.5" fill="#232044" stroke="#BCBACF"/>
<path d="M46.324 25.5L51.922 12.81H53.218L58.906 25.5H57.358L55.774 21.882L56.44 22.26H48.682L49.402 21.882L47.854 25.5H46.324ZM52.552 14.52L49.636 21.36L49.204 21.036H55.9L55.576 21.36L52.588 14.52H52.552ZM64.3684 25.662C63.4804 25.662 62.7064 25.47 62.0464 25.086C61.3984 24.702 60.8944 24.156 60.5344 23.448C60.1864 22.74 60.0124 21.9 60.0124 20.928C60.0124 19.944 60.1924 19.11 60.5524 18.426C60.9124 17.73 61.4164 17.202 62.0644 16.842C62.7244 16.482 63.4924 16.302 64.3684 16.302C64.9444 16.302 65.5024 16.404 66.0424 16.608C66.5944 16.812 67.0504 17.1 67.4104 17.472L66.8884 18.516C66.5284 18.168 66.1324 17.91 65.7004 17.742C65.2804 17.574 64.8664 17.49 64.4584 17.49C63.5224 17.49 62.7964 17.784 62.2804 18.372C61.7644 18.96 61.5064 19.818 61.5064 20.946C61.5064 22.062 61.7644 22.926 62.2804 23.538C62.7964 24.15 63.5224 24.456 64.4584 24.456C64.8544 24.456 65.2624 24.378 65.6824 24.222C66.1144 24.066 66.5164 23.808 66.8884 23.448L67.4104 24.474C67.0384 24.858 66.5764 25.152 66.0244 25.356C65.4724 25.56 64.9204 25.662 64.3684 25.662ZM72.6865 25.662C71.7985 25.662 71.1205 25.41 70.6525 24.906C70.1845 24.39 69.9505 23.616 69.9505 22.584V17.598H68.1865V16.464H69.9505V13.998L71.4085 13.584V16.464H74.0005V17.598H71.4085V22.422C71.4085 23.142 71.5285 23.658 71.7685 23.97C72.0205 24.27 72.3925 24.42 72.8845 24.42C73.1125 24.42 73.3165 24.402 73.4965 24.366C73.6765 24.318 73.8385 24.264 73.9825 24.204V25.428C73.8145 25.5 73.6105 25.554 73.3705 25.59C73.1425 25.638 72.9145 25.662 72.6865 25.662ZM75.7755 25.5V16.464H77.2335V25.5H75.7755ZM75.5955 14.412V12.774H77.3955V14.412H75.5955ZM82.7286 25.5L78.8586 16.464H80.4426L83.6826 24.42H83.1966L86.4726 16.464H87.9846L84.1146 25.5H82.7286ZM93.518 25.662C92.102 25.662 90.986 25.254 90.17 24.438C89.354 23.61 88.946 22.464 88.946 21C88.946 20.052 89.126 19.23 89.486 18.534C89.846 17.826 90.35 17.28 90.998 16.896C91.646 16.5 92.39 16.302 93.23 16.302C94.058 16.302 94.754 16.476 95.318 16.824C95.882 17.172 96.314 17.67 96.614 18.318C96.914 18.954 97.064 19.71 97.064 20.586V21.126H90.062V20.208H96.11L95.804 20.442C95.804 19.482 95.588 18.732 95.156 18.192C94.724 17.652 94.082 17.382 93.23 17.382C92.33 17.382 91.628 17.7 91.124 18.336C90.62 18.96 90.368 19.806 90.368 20.874V21.036C90.368 22.164 90.644 23.022 91.196 23.61C91.76 24.186 92.546 24.474 93.554 24.474C94.094 24.474 94.598 24.396 95.066 24.24C95.546 24.072 96.002 23.802 96.434 23.43L96.938 24.456C96.542 24.84 96.038 25.14 95.426 25.356C94.826 25.56 94.19 25.662 93.518 25.662ZM102.8 29.46C102.632 29.46 102.422 29.436 102.17 29.388C101.918 29.352 101.708 29.304 101.54 29.244V28.02C101.684 28.068 101.852 28.11 102.044 28.146C102.236 28.194 102.416 28.218 102.584 28.218C103.088 28.218 103.46 28.056 103.7 27.732C103.952 27.42 104.078 26.904 104.078 26.184V16.464H105.536V26.328C105.536 27.36 105.308 28.14 104.852 28.668C104.408 29.196 103.724 29.46 102.8 29.46ZM103.916 14.412V12.774H105.698V14.412H103.916ZM111.985 25.662C111.121 25.662 110.365 25.476 109.717 25.104C109.081 24.72 108.589 24.18 108.241 23.484C107.893 22.776 107.719 21.942 107.719 20.982C107.719 20.01 107.893 19.176 108.241 18.48C108.589 17.784 109.081 17.25 109.717 16.878C110.365 16.494 111.121 16.302 111.985 16.302C112.861 16.302 113.617 16.494 114.253 16.878C114.901 17.25 115.399 17.784 115.747 18.48C116.107 19.176 116.287 20.01 116.287 20.982C116.287 21.942 116.107 22.776 115.747 23.484C115.399 24.18 114.901 24.72 114.253 25.104C113.617 25.476 112.861 25.662 111.985 25.662ZM111.985 24.474C112.849 24.474 113.533 24.18 114.037 23.592C114.541 22.992 114.793 22.122 114.793 20.982C114.793 19.83 114.535 18.96 114.019 18.372C113.515 17.772 112.837 17.472 111.985 17.472C111.133 17.472 110.455 17.772 109.951 18.372C109.447 18.96 109.195 19.83 109.195 20.982C109.195 22.122 109.447 22.992 109.951 23.592C110.455 24.18 111.133 24.474 111.985 24.474ZM123.097 25.662C122.281 25.662 121.579 25.458 120.991 25.05C120.403 24.63 120.007 24.06 119.803 23.34H120.001V25.5H118.561V12.252H120.019V18.57H119.803C120.007 17.874 120.403 17.322 120.991 16.914C121.579 16.506 122.281 16.302 123.097 16.302C123.913 16.302 124.615 16.494 125.203 16.878C125.803 17.25 126.265 17.784 126.589 18.48C126.925 19.176 127.093 20.01 127.093 20.982C127.093 21.954 126.925 22.788 126.589 23.484C126.253 24.18 125.785 24.72 125.185 25.104C124.597 25.476 123.901 25.662 123.097 25.662ZM122.791 24.474C123.643 24.474 124.327 24.18 124.843 23.592C125.359 23.004 125.617 22.134 125.617 20.982C125.617 19.83 125.359 18.96 124.843 18.372C124.327 17.772 123.643 17.472 122.791 17.472C121.939 17.472 121.255 17.772 120.739 18.372C120.235 18.96 119.983 19.83 119.983 20.982C119.983 22.122 120.235 22.992 120.739 23.592C121.255 24.18 121.939 24.474 122.791 24.474ZM134.047 29.388V18.552C134.047 18.216 134.029 17.874 133.993 17.526C133.969 17.166 133.939 16.812 133.903 16.464H135.307L135.505 18.606H135.289C135.481 17.898 135.871 17.34 136.459 16.932C137.047 16.512 137.749 16.302 138.565 16.302C139.381 16.302 140.083 16.488 140.671 16.86C141.271 17.232 141.739 17.766 142.075 18.462C142.411 19.158 142.579 19.998 142.579 20.982C142.579 21.954 142.411 22.788 142.075 23.484C141.751 24.18 141.289 24.72 140.689 25.104C140.089 25.476 139.381 25.662 138.565 25.662C137.761 25.662 137.065 25.458 136.477 25.05C135.889 24.642 135.499 24.084 135.307 23.376H135.505V29.388H134.047ZM138.277 24.474C139.141 24.474 139.825 24.18 140.329 23.592C140.845 22.992 141.103 22.122 141.103 20.982C141.103 19.83 140.845 18.96 140.329 18.372C139.825 17.772 139.141 17.472 138.277 17.472C137.425 17.472 136.741 17.772 136.225 18.372C135.721 18.96 135.469 19.83 135.469 20.982C135.469 22.122 135.721 22.992 136.225 23.592C136.741 24.18 137.425 24.474 138.277 24.474ZM148.548 25.662C147.684 25.662 146.928 25.476 146.28 25.104C145.644 24.72 145.152 24.18 144.804 23.484C144.456 22.776 144.282 21.942 144.282 20.982C144.282 20.01 144.456 19.176 144.804 18.48C145.152 17.784 145.644 17.25 146.28 16.878C146.928 16.494 147.684 16.302 148.548 16.302C149.424 16.302 150.18 16.494 150.816 16.878C151.464 17.25 151.962 17.784 152.31 18.48C152.67 19.176 152.85 20.01 152.85 20.982C152.85 21.942 152.67 22.776 152.31 23.484C151.962 24.18 151.464 24.72 150.816 25.104C150.18 25.476 149.424 25.662 148.548 25.662ZM148.548 24.474C149.412 24.474 150.096 24.18 150.6 23.592C151.104 22.992 151.356 22.122 151.356 20.982C151.356 19.83 151.098 18.96 150.582 18.372C150.078 17.772 149.4 17.472 148.548 17.472C147.696 17.472 147.018 17.772 146.514 18.372C146.01 18.96 145.758 19.83 145.758 20.982C145.758 22.122 146.01 22.992 146.514 23.592C147.018 24.18 147.696 24.474 148.548 24.474ZM158.129 25.662C157.409 25.662 156.737 25.566 156.113 25.374C155.489 25.17 154.973 24.888 154.565 24.528L155.069 23.502C155.513 23.85 155.993 24.108 156.509 24.276C157.037 24.444 157.583 24.528 158.147 24.528C158.867 24.528 159.407 24.402 159.767 24.15C160.139 23.886 160.325 23.526 160.325 23.07C160.325 22.722 160.205 22.446 159.965 22.242C159.737 22.026 159.359 21.858 158.831 21.738L157.157 21.396C156.389 21.228 155.813 20.946 155.429 20.55C155.045 20.142 154.853 19.626 154.853 19.002C154.853 18.474 154.991 18.012 155.267 17.616C155.543 17.208 155.945 16.89 156.473 16.662C157.001 16.422 157.619 16.302 158.327 16.302C158.987 16.302 159.593 16.404 160.145 16.608C160.709 16.8 161.177 17.082 161.549 17.454L161.027 18.462C160.667 18.114 160.253 17.856 159.785 17.688C159.329 17.508 158.855 17.418 158.363 17.418C157.655 17.418 157.121 17.562 156.761 17.85C156.413 18.126 156.239 18.492 156.239 18.948C156.239 19.296 156.347 19.584 156.563 19.812C156.791 20.028 157.139 20.19 157.607 20.298L159.281 20.64C160.097 20.82 160.703 21.102 161.099 21.486C161.507 21.858 161.711 22.362 161.711 22.998C161.711 23.538 161.561 24.012 161.261 24.42C160.961 24.816 160.541 25.122 160.001 25.338C159.473 25.554 158.849 25.662 158.129 25.662ZM167.169 25.662C166.281 25.662 165.603 25.41 165.135 24.906C164.667 24.39 164.433 23.616 164.433 22.584V17.598H162.669V16.464H164.433V13.998L165.891 13.584V16.464H168.483V17.598H165.891V22.422C165.891 23.142 166.011 23.658 166.251 23.97C166.503 24.27 166.875 24.42 167.367 24.42C167.595 24.42 167.799 24.402 167.979 24.366C168.159 24.318 168.321 24.264 168.465 24.204V25.428C168.297 25.5 168.093 25.554 167.853 25.59C167.625 25.638 167.397 25.662 167.169 25.662ZM173.264 25.662C172.544 25.662 171.872 25.566 171.248 25.374C170.624 25.17 170.108 24.888 169.7 24.528L170.204 23.502C170.648 23.85 171.128 24.108 171.644 24.276C172.172 24.444 172.718 24.528 173.282 24.528C174.002 24.528 174.542 24.402 174.902 24.15C175.274 23.886 175.46 23.526 175.46 23.07C175.46 22.722 175.34 22.446 175.1 22.242C174.872 22.026 174.494 21.858 173.966 21.738L172.292 21.396C171.524 21.228 170.948 20.946 170.564 20.55C170.18 20.142 169.988 19.626 169.988 19.002C169.988 18.474 170.126 18.012 170.402 17.616C170.678 17.208 171.08 16.89 171.608 16.662C172.136 16.422 172.754 16.302 173.462 16.302C174.122 16.302 174.728 16.404 175.28 16.608C175.844 16.8 176.312 17.082 176.684 17.454L176.162 18.462C175.802 18.114 175.388 17.856 174.92 17.688C174.464 17.508 173.99 17.418 173.498 17.418C172.79 17.418 172.256 17.562 171.896 17.85C171.548 18.126 171.374 18.492 171.374 18.948C171.374 19.296 171.482 19.584 171.698 19.812C171.926 20.028 172.274 20.19 172.742 20.298L174.416 20.64C175.232 20.82 175.838 21.102 176.234 21.486C176.642 21.858 176.846 22.362 176.846 22.998C176.846 23.538 176.696 24.012 176.396 24.42C176.096 24.816 175.676 25.122 175.136 25.338C174.608 25.554 173.984 25.662 173.264 25.662Z" fill="#BCBACF"/>
</svg>
